<?xml version="1.0" encoding="UTF-8" standalone="no"?>
<!-- Created with Inkscape (http://www.inkscape.org/) -->

<svg
   xmlns:dc="http://purl.org/dc/elements/1.1/"
   xmlns:cc="http://creativecommons.org/ns#"
   xmlns:rdf="http://www.w3.org/1999/02/22-rdf-syntax-ns#"
   xmlns:svg="http://www.w3.org/2000/svg"
   xmlns="http://www.w3.org/2000/svg"
   xmlns:xlink="http://www.w3.org/1999/xlink"
   xmlns:sodipodi="http://sodipodi.sourceforge.net/DTD/sodipodi-0.dtd"
   xmlns:inkscape="http://www.inkscape.org/namespaces/inkscape"
   width="256"
   height="256"
   viewBox="0 0 256 256"
   id="svg2"
   version="1.1"
   inkscape:version="0.91 r13725"
   sodipodi:docname="icon.svg">
  <defs
     id="defs4">
    <linearGradient
       inkscape:collect="always"
       id="linearGradient4176">
      <stop
         style="stop-color:#490068;stop-opacity:1"
         offset="0"
         id="stop4178" />
      <stop
         style="stop-color:#8e44ad;stop-opacity:1"
         offset="1"
         id="stop4180" />
    </linearGradient>
    <linearGradient
       inkscape:collect="always"
       id="linearGradient4713">
      <stop
         style="stop-color:#bdc3c7;stop-opacity:1"
         offset="0"
         id="stop4715" />
      <stop
         style="stop-color:#ffffff;stop-opacity:0"
         offset="1"
         id="stop4717" />
    </linearGradient>
    <linearGradient
       inkscape:collect="always"
       xlink:href="#linearGradient4713"
       id="linearGradient4719"
       x1="429.56735"
       y1="578.24713"
       x2="487.28494"
       y2="635.96472"
       gradientUnits="userSpaceOnUse"
       gradientTransform="translate(-244.52344,352.18107)" />
    <linearGradient
       inkscape:collect="always"
       xlink:href="#linearGradient4176"
       id="linearGradient4182"
       x1="-183.1015"
       y1="611.26068"
       x2="235.5"
       y2="1029.8622"
       gradientUnits="userSpaceOnUse" />
  </defs>
  <sodipodi:namedview
     id="base"
     pagecolor="#ffffff"
     bordercolor="#666666"
     borderopacity="1.0"
     inkscape:pageopacity="0.0"
     inkscape:pageshadow="2"
     inkscape:zoom="0.70710678"
     inkscape:cx="305.92229"
     inkscape:cy="-115.81802"
     inkscape:document-units="px"
     inkscape:current-layer="layer1"
     showgrid="false"
     inkscape:window-width="1680"
     inkscape:window-height="987"
     inkscape:window-x="1272"
     inkscape:window-y="-8"
     inkscape:window-maximized="1"
     units="px" />
  <metadata
     id="metadata7">
    <rdf:RDF>
      <cc:Work
         rdf:about="">
        <dc:format>image/svg+xml</dc:format>
        <dc:type
           rdf:resource="http://purl.org/dc/dcmitype/StillImage" />
        <dc:title />
      </cc:Work>
    </rdf:RDF>
  </metadata>
  <g
     inkscape:label="Layer 1"
     inkscape:groupmode="layer"
     id="layer1"
     transform="translate(0,-796.36216)">
    <rect
       style="opacity:1;fill:url(#linearGradient4182);fill-opacity:1;stroke:none;stroke-width:5.83900023;stroke-linecap:square;stroke-linejoin:miter;stroke-miterlimit:4;stroke-dasharray:none;stroke-opacity:1"
       id="rect4684"
       width="256"
       height="256"
       x="-2.4999999e-006"
       y="796.36218"
       inkscape:export-xdpi="90"
       inkscape:export-ydpi="90" />
    <path
       style="opacity:1;fill:#ecf0f1;fill-opacity:1;stroke:none;stroke-width:5.83900023;stroke-linecap:square;stroke-linejoin:miter;stroke-miterlimit:4;stroke-dasharray:none;stroke-opacity:1"
       d="M 53 58.880859 L 53 152.57227 L 181.99219 152.57227 L 203 132.1543 L 203 58.880859 L 53 58.880859 z "
       id="rect4686"
       transform="translate(0,796.36216)"
       inkscape:export-xdpi="90"
       inkscape:export-ydpi="90" />
    <rect
       style="opacity:1;fill:#3498db;fill-opacity:1;stroke:none;stroke-width:5.83900023;stroke-linecap:square;stroke-linejoin:miter;stroke-miterlimit:4;stroke-dasharray:none;stroke-opacity:1"
       id="rect4688"
       width="150"
       height="36.309525"
       x="52.999996"
       y="818.93359"
       inkscape:export-xdpi="90"
       inkscape:export-ydpi="90" />
    <circle
       style="opacity:1;fill:#2c3e50;fill-opacity:1;stroke:none;stroke-width:5.83900023;stroke-linecap:square;stroke-linejoin:miter;stroke-miterlimit:4;stroke-dasharray:none;stroke-opacity:1"
       id="path4690"
       cx="81.571442"
       cy="837.08838"
       r="8.5714283"
       inkscape:export-xdpi="90"
       inkscape:export-ydpi="90" />
    <circle
       style="opacity:1;fill:#2c3e50;fill-opacity:1;stroke:none;stroke-width:5.83900023;stroke-linecap:square;stroke-linejoin:miter;stroke-miterlimit:4;stroke-dasharray:none;stroke-opacity:1"
       id="circle4694"
       cx="174.42856"
       cy="837.08838"
       r="8.5714283"
       inkscape:export-xdpi="90"
       inkscape:export-ydpi="90" />
    <rect
       style="opacity:1;fill:#bdc3c7;fill-opacity:1;stroke:none;stroke-width:5.83900023;stroke-linecap:square;stroke-linejoin:miter;stroke-miterlimit:4;stroke-dasharray:none;stroke-opacity:1"
       id="rect4700"
       width="12.374369"
       height="26.263966"
       x="75.384247"
       y="813.85657"
       ry="6.5659914"
       inkscape:export-xdpi="90"
       inkscape:export-ydpi="90" />
    <rect
       ry="6.5659914"
       y="813.85657"
       x="168.24136"
       height="26.263966"
       width="12.374369"
       id="rect4702"
       style="opacity:1;fill:#bdc3c7;fill-opacity:1;stroke:none;stroke-width:5.83900023;stroke-linecap:square;stroke-linejoin:miter;stroke-miterlimit:4;stroke-dasharray:none;stroke-opacity:1"
       inkscape:export-xdpi="90"
       inkscape:export-ydpi="90" />
    <path
       sodipodi:nodetypes="cccc"
       inkscape:connector-curvature="0"
       id="path4711"
       d="m 182.29188,948.93359 0,-20.70813 20.70812,0 z"
       style="opacity:1;fill:url(#linearGradient4719);fill-opacity:1;stroke:none;stroke-width:5.83900023;stroke-linecap:square;stroke-linejoin:miter;stroke-miterlimit:4;stroke-dasharray:none;stroke-opacity:1"
       inkscape:export-xdpi="90"
       inkscape:export-ydpi="90" />
    <text
       xml:space="preserve"
       style="font-style:normal;font-variant:normal;font-weight:normal;font-stretch:normal;font-size:40px;line-height:80.00000119%;font-family:'Segoe UI';-inkscape-font-specification:'Segoe UI, Normal';text-align:center;letter-spacing:0px;word-spacing:0px;writing-mode:lr-tb;text-anchor:middle;fill:#ecf0f1;fill-opacity:1;stroke:none;stroke-width:1px;stroke-linecap:butt;stroke-linejoin:miter;stroke-opacity:1"
       x="128.48828"
       y="996.04327"
       id="text4185"
       sodipodi:linespacing="80.000001%"
       inkscape:export-xdpi="90"
       inkscape:export-ydpi="90"><tspan
         sodipodi:role="line"
         id="tspan4187"
         x="128.48828"
         y="996.04327">PCF</tspan><tspan
         sodipodi:role="line"
         x="128.48828"
         y="1028.0432"
         id="tspan4189">Countdown</tspan></text>
    <g
       id="g6027"
       transform="matrix(0.46912711,0,0,0.46912711,-130.13458,488.59849)">
      <g
         transform="matrix(-1,0,0,1,1100.4889,0)"
         id="g6017">
        <ellipse
           transform="matrix(-4.203564e-4,0.99999991,0.99999997,2.608786e-4,0,0)"
           style="opacity:1;fill:#27170a;fill-opacity:1;stroke:none;stroke-width:0.40000001;stroke-linecap:round;stroke-linejoin:round;stroke-miterlimit:4;stroke-dasharray:none;stroke-opacity:1"
           id="ellipse6019"
           cx="927.31927"
           cy="506.63425"
           rx="25.102291"
           ry="56.547726" />
        <ellipse
           ry="47.604725"
           rx="25.28331"
           cy="782.07751"
           cx="712.29132"
           id="ellipse6021"
           style="opacity:1;fill:#402610;fill-opacity:1;stroke:none;stroke-width:0.40000001;stroke-linecap:round;stroke-linejoin:round;stroke-miterlimit:4;stroke-dasharray:none;stroke-opacity:1"
           transform="matrix(-0.33516282,0.94216022,0.95543959,0.2951867,0,0)" />
        <ellipse
           transform="matrix(-0.76541039,0.64354249,0.684912,0.72862579,0,0)"
           style="opacity:1;fill:#513014;fill-opacity:1;stroke:none;stroke-width:0.40000001;stroke-linecap:round;stroke-linejoin:round;stroke-miterlimit:4;stroke-dasharray:none;stroke-opacity:1"
           id="ellipse6023"
           cx="227.06294"
           cy="1001.6484"
           rx="25.94742"
           ry="45.651848" />
        <ellipse
           ry="44.547726"
           rx="25.102291"
           cy="997.54303"
           cx="-112.88284"
           id="ellipse6025"
           style="opacity:1;fill:#633b18;fill-opacity:1;stroke:none;stroke-width:0.40000001;stroke-linecap:round;stroke-linejoin:round;stroke-miterlimit:4;stroke-dasharray:none;stroke-opacity:1"
           transform="matrix(-0.90313754,0.42935136,0.42935136,0.90313754,0,0)" />
      </g>
      <g
         id="g6011">
        <ellipse
           ry="56.547726"
           rx="25.102291"
           cy="506.63425"
           cx="927.31927"
           id="ellipse6009"
           style="opacity:1;fill:#27170a;fill-opacity:1;stroke:none;stroke-width:0.40000001;stroke-linecap:round;stroke-linejoin:round;stroke-miterlimit:4;stroke-dasharray:none;stroke-opacity:1"
           transform="matrix(-4.203564e-4,0.99999991,0.99999997,2.608786e-4,0,0)" />
        <ellipse
           transform="matrix(-0.33516282,0.94216022,0.95543959,0.2951867,0,0)"
           style="opacity:1;fill:#402610;fill-opacity:1;stroke:none;stroke-width:0.40000001;stroke-linecap:round;stroke-linejoin:round;stroke-miterlimit:4;stroke-dasharray:none;stroke-opacity:1"
           id="ellipse6007"
           cx="712.29132"
           cy="782.07751"
           rx="25.28331"
           ry="47.604725" />
        <ellipse
           ry="45.651848"
           rx="25.94742"
           cy="1001.6484"
           cx="227.06294"
           id="ellipse6005"
           style="opacity:1;fill:#513014;fill-opacity:1;stroke:none;stroke-width:0.40000001;stroke-linecap:round;stroke-linejoin:round;stroke-miterlimit:4;stroke-dasharray:none;stroke-opacity:1"
           transform="matrix(-0.76541039,0.64354249,0.684912,0.72862579,0,0)" />
        <ellipse
           transform="matrix(-0.90313754,0.42935136,0.42935136,0.90313754,0,0)"
           style="opacity:1;fill:#633b18;fill-opacity:1;stroke:none;stroke-width:0.40000001;stroke-linecap:round;stroke-linejoin:round;stroke-miterlimit:4;stroke-dasharray:none;stroke-opacity:1"
           id="ellipse5995"
           cx="-112.88284"
           cy="997.54303"
           rx="25.102291"
           ry="44.547726" />
      </g>
    </g>
    <ellipse
       style="opacity:1;fill:#76461c;fill-opacity:1;stroke:none;stroke-width:0.40000001;stroke-linecap:round;stroke-linejoin:round;stroke-miterlimit:4;stroke-dasharray:none;stroke-opacity:1"
       id="path5991"
       cx="128"
       cy="885.24652"
       rx="11.776165"
       ry="20.898546" />
    <path
       inkscape:connector-curvature="0"
       style="opacity:1;fill:#8f5423;fill-opacity:1;stroke:none;stroke-width:0.40000001;stroke-linecap:round;stroke-linejoin:round;stroke-miterlimit:4;stroke-dasharray:none;stroke-opacity:1"
       d="m 128.00046,881.00538 a 13.103057,13.103057 0 0 0 -13.10349,13.10349 13.103057,13.103057 0 0 0 2.83034,8.13185 16.834941,20.981477 0 0 0 -6.56228,16.60728 16.834941,20.981477 0 0 0 16.83543,20.98152 16.834941,20.981477 0 0 0 16.83452,-20.98152 16.834941,20.981477 0 0 0 -6.57969,-16.60637 13.103057,13.103057 0 0 0 2.84775,-8.13276 13.103057,13.103057 0 0 0 -13.10258,-13.10349 z"
       id="path5984" />
    <path
       style="fill:#d3ab57;fill-opacity:1;fill-rule:evenodd;stroke:none;stroke-width:1px;stroke-linecap:butt;stroke-linejoin:miter;stroke-opacity:1"
       d="m 124.48581,897.90897 7.02839,0 -3.51419,9.27147 z"
       id="path6039"
       inkscape:connector-curvature="0"
       sodipodi:nodetypes="cccc" />
    <g
       id="g6130"
       transform="matrix(0.63579378,0,0,0.63579378,-221.20662,345.23083)">
      <g
         transform="translate(-0.75488,4)"
         id="g6099">
        <path
           style="opacity:1;fill:#ecf0f1;fill-opacity:1;stroke:none;stroke-width:0.40000001;stroke-linecap:round;stroke-linejoin:round;stroke-miterlimit:4;stroke-dasharray:none;stroke-opacity:1"
           d="m 546.5,856.20593 a 3.5,5.09375 0 0 1 -3.5,5.09375 3.5,5.09375 0 0 1 -3.5,-5.09375 3.5,5.09375 0 0 1 3.5,-5.09375 3.5,5.09375 0 0 1 3.5,5.09375 z"
           id="path6041"
           inkscape:connector-curvature="0" />
        <path
           style="opacity:1;fill:#000000;fill-opacity:1;stroke:none;stroke-width:0.40000001;stroke-linecap:round;stroke-linejoin:round;stroke-miterlimit:4;stroke-dasharray:none;stroke-opacity:1"
           d="m 545.90689,856.36548 a 1.8640019,3.0067586 0 0 1 -1.864,3.00676 1.8640019,3.0067586 0 0 1 -1.864,-3.00676 1.8640019,3.0067586 0 0 1 1.864,-3.00675 1.8640019,3.0067586 0 0 1 1.864,3.00675 z"
           id="ellipse6045"
           inkscape:connector-curvature="0" />
        <path
           id="path6086"
           d="m 545.38625,854.73539 a 0.76304054,0.34718869 72.69711 0 1 -0.0287,0.90806 0.76304054,0.34718869 72.69711 0 1 -0.56739,-0.50815 0.76304054,0.34718869 72.69711 0 1 0.0287,-0.90806 0.76304054,0.34718869 72.69711 0 1 0.56739,0.50815 z"
           style="opacity:1;fill:#ecf0f1;fill-opacity:1;stroke:none;stroke-width:0.40000001;stroke-linecap:round;stroke-linejoin:round;stroke-miterlimit:4;stroke-dasharray:none;stroke-opacity:1"
           inkscape:connector-curvature="0" />
      </g>
      <g
         id="g6125">
        <path
           id="path6088"
           d="m 552.74512,860.20593 a 3.5,5.09375 0 0 0 3.5,5.09375 3.5,5.09375 0 0 0 3.5,-5.09375 3.5,5.09375 0 0 0 -3.5,-5.09375 3.5,5.09375 0 0 0 -3.5,5.09375 z"
           style="opacity:1;fill:#ecf0f1;fill-opacity:1;stroke:none;stroke-width:0.40000001;stroke-linecap:round;stroke-linejoin:round;stroke-miterlimit:4;stroke-dasharray:none;stroke-opacity:1"
           inkscape:connector-curvature="0" />
        <path
           inkscape:connector-curvature="0"
           id="path6090"
           d="m 553.33823,860.36548 a 1.8640019,3.0067586 0 0 0 1.864,3.00676 1.8640019,3.0067586 0 0 0 1.864,-3.00676 1.8640019,3.0067586 0 0 0 -1.864,-3.00675 1.8640019,3.0067586 0 0 0 -1.864,3.00675 z"
           style="opacity:1;fill:#000000;fill-opacity:1;stroke:none;stroke-width:0.40000001;stroke-linecap:round;stroke-linejoin:round;stroke-miterlimit:4;stroke-dasharray:none;stroke-opacity:1" />
        <path
           inkscape:connector-curvature="0"
           style="opacity:1;fill:#ecf0f1;fill-opacity:1;stroke:none;stroke-width:0.40000001;stroke-linecap:round;stroke-linejoin:round;stroke-miterlimit:4;stroke-dasharray:none;stroke-opacity:1"
           d="m 556.45496,858.73539 a 0.76304054,0.34718869 72.69711 0 1 -0.0287,0.90806 0.76304054,0.34718869 72.69711 0 1 -0.56739,-0.50815 0.76304054,0.34718869 72.69711 0 1 0.0287,-0.90806 0.76304054,0.34718869 72.69711 0 1 0.56739,0.50815 z"
           id="path6092" />
      </g>
    </g>
  </g>
  <g
     inkscape:groupmode="layer"
     id="layer2"
     inkscape:label="Layer 2" />
</svg>
